<svg width="51" height="51" viewBox="0 0 51 51" fill="none" xmlns="http://www.w3.org/2000/svg">
<path d="M11.5 6.5C11.5 9.26142 9.26142 11.5 6.5 11.5C3.73858 11.5 1.5 9.26142 1.5 6.5C1.5 3.73858 3.73858 1.5 6.5 1.5C9.26142 1.5 11.5 3.73858 11.5 6.5ZM11.5 25.5C11.5 28.2614 9.26142 30.5 6.5 30.5C3.73858 30.5 1.5 28.2614 1.5 25.5C1.5 22.7386 3.73858 20.5 6.5 20.5C9.26142 20.5 11.5 22.7386 11.5 25.5ZM11.5 44.5C11.5 47.2614 9.26142 49.5 6.5 49.5C3.73858 49.5 1.5 47.2614 1.5 44.5C1.5 41.7386 3.73858 39.5 6.5 39.5C9.26142 39.5 11.5 41.7386 11.5 44.5ZM30.5 6.5C30.5 9.26142 28.2614 11.5 25.5 11.5C22.7386 11.5 20.5 9.26142 20.5 6.5C20.5 3.73858 22.7386 1.5 25.5 1.5C28.2614 1.5 30.5 3.73858 30.5 6.5ZM30.5 25.5C30.5 28.2614 28.2614 30.5 25.5 30.5C22.7386 30.5 20.5 28.2614 20.5 25.5C20.5 22.7386 22.7386 20.5 25.5 20.5C28.2614 20.5 30.5 22.7386 30.5 25.5ZM30.5 44.5C30.5 47.2614 28.2614 49.5 25.5 49.5C22.7386 49.5 20.5 47.2614 20.5 44.5C20.5 41.7386 22.7386 39.5 25.5 39.5C28.2614 39.5 30.5 41.7386 30.5 44.5ZM49.5 6.5C49.5 9.26142 47.2614 11.5 44.5 11.5C41.7386 11.5 39.5 9.26142 39.5 6.5C39.5 3.73858 41.7386 1.5 44.5 1.5C47.2614 1.5 49.5 3.73858 49.5 6.5ZM49.5 25.5C49.5 28.2614 47.2614 30.5 44.5 30.5C41.7386 30.5 39.5 28.2614 39.5 25.5C39.5 22.7386 41.7386 20.5 44.5 20.5C47.2614 20.5 49.5 22.7386 49.5 25.5ZM49.5 44.5C49.5 47.2614 47.2614 49.5 44.5 49.5C41.7386 49.5 39.5 47.2614 39.5 44.5C39.5 41.7386 41.7386 39.5 44.5 39.5C47.2614 39.5 49.5 41.7386 49.5 44.5Z" stroke="#404040" stroke-width="3"/>
</svg>
