<svg width="53" height="27" viewBox="0 0 53 27" fill="none" xmlns="http://www.w3.org/2000/svg">
<path d="M0 12.3559C0.190273 12.0737 0.44397 11.967 0.816588 11.967C4.89953 11.9822 8.98247 11.9746 13.0654 11.9746C13.3905 11.9746 13.6124 12.0661 13.7234 12.3864C13.8265 12.6915 13.7155 12.928 13.4697 13.1034C13.3667 13.172 13.2081 13.1949 13.0654 13.1949C12.114 13.2025 11.1627 13.2025 10.1558 13.2025C10.1558 13.3475 10.1558 13.4619 10.1558 13.5839C10.1558 16.139 10.1637 18.6941 10.1479 21.2492C10.1479 21.6076 10.2589 21.7449 10.6474 21.7373C11.6146 21.722 12.5739 21.7297 13.5411 21.7373C13.7631 21.7373 13.8503 21.6763 13.8978 21.4475C14.0802 20.6009 14.4687 19.8305 15.0791 19.1898C15.7926 18.4347 16.6964 17.9771 17.7271 17.7788C19.0749 17.5271 20.3196 17.8093 21.4295 18.572C22.4126 19.2432 23.0547 20.1509 23.3084 21.2873C23.3798 21.6076 23.4987 21.7373 23.8713 21.7373C28.4379 21.7297 33.0123 21.7373 37.5789 21.7373C37.8167 21.7373 37.9277 21.6992 37.9991 21.4246C38.4351 19.678 39.4975 18.4729 41.3209 17.9085C44.0244 17.0619 46.9419 18.8314 47.4176 21.3941C47.4572 21.6153 47.5603 21.7373 47.8378 21.7297C48.6544 21.7144 49.4789 21.722 50.2955 21.722C50.5492 21.722 50.676 21.6458 50.6681 21.3712C50.6602 18.572 50.6681 15.7805 50.6522 12.9814C50.6522 12.8136 50.5492 12.6229 50.4382 12.4856C49.3124 11.0822 48.1787 9.69407 47.045 8.29831C45.8716 6.85678 44.6824 5.41525 43.5091 3.97373C42.8669 3.18051 42.2247 2.38729 41.5826 1.59407C41.4161 1.38813 41.2258 1.28135 40.9245 1.28135C30.8321 1.28898 20.7397 1.28898 10.6474 1.28135C10.2827 1.28135 10.1241 1.35763 10.1479 1.73898C10.1796 2.28051 10.1558 2.82966 10.1558 3.41695C10.3223 3.41695 10.465 3.41695 10.5998 3.41695C13.1526 3.41695 15.6975 3.41695 18.2503 3.41695C18.8608 3.41695 19.1066 3.59237 19.1145 4.04237C19.1224 4.46186 18.7894 4.70593 18.2186 4.70593C17.0928 4.70593 15.975 4.69068 14.8492 4.6983C11.9793 4.6983 9.11724 4.70593 6.24729 4.70593C5.66062 4.70593 5.39107 4.49237 5.39899 4.05C5.39899 3.65339 5.63683 3.41695 6.05702 3.41695C6.87361 3.40932 7.69812 3.40169 8.51471 3.42457C8.80805 3.4322 8.91111 3.34068 8.89526 3.05847C8.87147 2.50932 8.9349 1.96017 8.8794 1.41864C8.81598 0.8161 9.46608 0.0838961 10.1162 0.0610147C10.1558 0.0610147 10.1955 0.015252 10.2351 -0.00762939C20.6208 -0.00762939 31.0065 -0.00762939 41.3923 -0.00762939C41.8045 0.129659 42.2168 0.266947 42.4864 0.633049C42.8035 1.06017 43.1444 1.47203 43.4774 1.89152C44.6666 3.35593 45.8716 4.81271 47.0608 6.26949C48.0677 7.50508 49.0745 8.74068 50.0656 9.9839C50.7236 10.8153 51.3657 11.6619 52.0158 12.5008C52.0158 15.628 52.0158 18.7551 52.0158 21.8822C51.6749 22.6907 51.0645 23.011 50.1607 22.9576C49.2965 22.9119 48.4244 22.95 47.5207 22.95C47.481 23.1102 47.4572 23.2703 47.4097 23.4153C46.9419 25.0017 45.9509 26.1305 44.3177 26.6797C43.8658 26.8322 43.3743 26.8856 42.8986 26.9924C42.7638 26.9924 42.637 26.9924 42.5022 26.9924C42.4467 26.9695 42.3991 26.9237 42.3436 26.9161C41.0672 26.8551 40.0287 26.3212 39.1645 25.4288C38.4906 24.7271 38.118 23.9034 37.9436 22.9653C33.0916 22.9653 28.2635 22.9653 23.4273 22.9653C23.3877 23.1025 23.356 23.2322 23.3164 23.3619C22.8962 24.9941 21.8655 26.1153 20.2244 26.6797C19.7725 26.8398 19.2731 26.8856 18.7974 26.9924C18.7736 26.9924 18.7419 26.9924 18.7181 26.9924C18.5992 26.9695 18.4723 26.9237 18.3534 26.9161C16.8391 26.8932 15.6975 26.1992 14.7779 25.1009C14.2546 24.4754 13.993 23.7356 13.8503 22.95C12.6611 22.95 11.5036 22.95 10.3382 22.95C9.49779 22.95 8.88733 22.3627 8.88733 21.5542C8.88733 18.9153 8.8794 16.2763 8.89526 13.6297C8.89526 13.2712 8.78427 13.1797 8.4275 13.1797C5.89053 13.1949 3.36149 13.1797 0.824516 13.1949C0.459826 13.1949 0.206129 13.0881 0.00792804 12.8059C0 12.661 0 12.5085 0 12.3559ZM39.2359 22.3093C39.1645 24.2085 40.8215 25.6729 42.6687 25.6958C44.6269 25.7186 46.2046 24.1627 46.2125 22.3627C46.2205 20.4941 44.6666 19.0602 42.8431 18.9763C40.8849 18.8847 39.1249 20.5703 39.2359 22.3093ZM15.1426 22.3398C15.1029 24.2085 16.7361 25.6729 18.5754 25.6958C20.5574 25.7186 22.0796 24.1703 22.1192 22.4009C22.1668 20.5093 20.5098 19.022 18.7102 18.9763C16.7837 18.9229 15.0633 20.517 15.1426 22.3398Z" fill="#4B7C9B"/>
<path d="M52 12.5085C51.3499 11.6695 50.7157 10.8229 50.0497 9.99152C49.0587 8.7483 48.0518 7.51271 47.045 6.27712C45.8558 4.81271 44.6507 3.35593 43.4615 1.89915C43.1206 1.48729 42.7876 1.06779 42.4705 0.640676C42.193 0.274574 41.7887 0.137286 41.3764 -2.27569e-06C44.9203 -2.27569e-06 48.4562 -2.27569e-06 52 -2.27569e-06C52 4.17203 52 8.33644 52 12.5085Z" fill="white"/>
<path d="M41.099 13.1949C39.3865 13.1949 37.6661 13.2025 35.9537 13.1949C34.8913 13.1949 34.4235 12.5695 34.4156 11.7076C34.3998 9.09152 34.4077 6.47542 34.4077 3.85932C34.4077 3.05847 34.9706 2.29576 35.9537 2.34915C37.1666 2.41779 38.3876 2.41017 39.5926 2.34915C40.4092 2.30339 40.9087 2.64661 41.3685 3.2339C42.6053 4.83559 43.8738 6.40678 45.1264 7.99322C45.9271 9 46.7358 9.99915 47.5365 11.0059C47.9012 11.4636 47.9488 11.9746 47.6951 12.4856C47.4335 13.0119 46.934 13.1949 46.3711 13.1949C44.6111 13.2025 42.8511 13.1949 41.099 13.1949ZM35.7634 11.8831C39.3548 11.8831 42.9145 11.8831 46.5138 11.8831C46.4662 11.7915 46.4425 11.7229 46.3949 11.6695C45.832 10.9678 45.2532 10.2661 44.6904 9.56441C43.1999 7.67288 41.7015 5.79661 40.211 3.90508C40.0366 3.6839 39.8622 3.56949 39.5609 3.57712C38.8236 3.6 38.0863 3.58474 37.3411 3.58474C36.8178 3.58474 36.2946 3.58474 35.7555 3.58474C35.7634 6.36864 35.7634 9.10678 35.7634 11.8831Z" fill="#4B7C9B"/>
<path d="M8.66535 7.55085C6.6437 7.55085 4.62997 7.55085 2.60832 7.55085C2.10886 7.55085 1.85516 7.36779 1.82345 6.99407C1.78381 6.52881 2.02958 6.26949 2.53697 6.26186C3.18707 6.25423 3.82924 6.26186 4.47934 6.26186C7.88047 6.26186 11.2895 6.26186 14.6907 6.26186C15.2298 6.26186 15.4914 6.43728 15.531 6.80339C15.5865 7.29915 15.3249 7.55847 14.7541 7.55847C12.8672 7.55847 10.9803 7.55847 9.09346 7.55847C8.95868 7.55085 8.80805 7.55085 8.66535 7.55085Z" fill="#4B7C9B"/>
<path d="M10.8297 10.3729C8.78427 10.3729 6.73883 10.3729 4.6934 10.3729C4.32078 10.3729 4.05915 10.1898 4.00366 9.87712C3.97195 9.67118 4.11465 9.39661 4.26528 9.22881C4.3842 9.10678 4.64583 9.08389 4.84403 9.08389C8.85562 9.07627 12.8672 9.07627 16.8709 9.07627C17.402 9.07627 17.7509 9.35084 17.743 9.73983C17.743 10.1136 17.3862 10.3653 16.8709 10.3653C14.8651 10.3729 12.8514 10.3729 10.8297 10.3729Z" fill="#4B7C9B"/>
</svg>
