<svg width="19" height="19" viewBox="0 0 19 19" fill="none" xmlns="http://www.w3.org/2000/svg">
<path fill-rule="evenodd" clip-rule="evenodd" d="M9.5 17.8125C11.7046 17.8125 13.8189 16.9367 15.3778 15.3778C16.9367 13.8189 17.8125 11.7046 17.8125 9.5C17.8125 7.29539 16.9367 5.18107 15.3778 3.62217C13.8189 2.06328 11.7046 1.1875 9.5 1.1875C7.29539 1.1875 5.18107 2.06328 3.62217 3.62217C2.06328 5.18107 1.1875 7.29539 1.1875 9.5C1.1875 11.7046 2.06328 13.8189 3.62217 15.3778C5.18107 16.9367 7.29539 17.8125 9.5 17.8125ZM19 9.5C19 12.0196 17.9991 14.4359 16.2175 16.2175C14.4359 17.9991 12.0196 19 9.5 19C6.98044 19 4.56408 17.9991 2.78249 16.2175C1.00089 14.4359 0 12.0196 0 9.5C0 6.98044 1.00089 4.56408 2.78249 2.78249C4.56408 1.00089 6.98044 0 9.5 0C12.0196 0 14.4359 1.00089 16.2175 2.78249C17.9991 4.56408 19 6.98044 19 9.5Z" fill="#E02A47"/>
<path fill-rule="evenodd" clip-rule="evenodd" d="M8.90625 3.5625C9.06372 3.5625 9.21474 3.62506 9.32609 3.73641C9.43744 3.84776 9.5 3.99878 9.5 4.15625V10.3431L13.357 12.5471C13.4898 12.6272 13.5859 12.756 13.6249 12.9061C13.664 13.0561 13.6427 13.2155 13.5658 13.3501C13.4889 13.4847 13.3624 13.5839 13.2133 13.6265C13.0642 13.669 12.9044 13.6516 12.768 13.5779L8.61175 11.2029C8.52087 11.151 8.44533 11.076 8.39278 10.9855C8.34023 10.8949 8.31253 10.7922 8.3125 10.6875V4.15625C8.3125 3.99878 8.37506 3.84776 8.48641 3.73641C8.59776 3.62506 8.74878 3.5625 8.90625 3.5625Z" fill="#E02A47"/>
</svg>
