<svg width="32" height="24" viewBox="0 0 32 24" fill="none" xmlns="http://www.w3.org/2000/svg">
<path d="M28.9219 5.03125C28.6094 3.84375 27.6719 2.90625 26.4844 2.57813C24.3438 2 15.75 2 15.75 2C15.75 2 7.15625 2 5 2.57813C3.8125 2.89063 2.89063 3.82813 2.5625 5.03125C2 7.1875 2 11.6875 2 11.6875C2 11.6875 2 16.1875 2.57812 18.3438C2.89062 19.5312 3.82812 20.4688 5.01562 20.7969C7.15625 21.375 15.75 21.375 15.75 21.375C15.75 21.375 24.3438 21.375 26.5 20.7969C27.6875 20.4844 28.6094 19.5469 28.9375 18.3438C29.5 16.1875 29.5 11.6875 29.5 11.6875C29.5 11.6875 29.5 7.1875 28.9219 5.03125Z" fill="white"/>
<path d="M12.9375 15.7812V7.59375L20.125 11.6875L12.9375 15.7812Z" fill="#E02A47"/>
<path d="M30.5 11.6877C30.5 11.6876 30.5 11.6875 29.5 11.6875C30.5 11.6875 30.5 11.6874 30.5 11.6873V11.687V11.6862L30.5 11.6832L30.5 11.6725L30.4998 11.6322C30.4998 11.6196 30.4997 11.6048 30.4996 11.5881C30.4995 11.5585 30.4992 11.5227 30.4988 11.4811C30.4977 11.3506 30.4954 11.1627 30.4908 10.9309C30.4816 10.4677 30.4632 9.82675 30.4264 9.11622C30.3544 7.72601 30.2075 5.96632 29.8884 4.77452C29.4832 3.23806 28.275 2.03543 26.7507 1.61424L26.7507 1.61423L26.7451 1.61271C26.1052 1.4399 25.0762 1.32731 23.9773 1.24658C22.8501 1.16378 21.559 1.10904 20.3444 1.07271C19.1281 1.03633 17.9802 1.01817 17.137 1.00909C16.7152 1.00455 16.3691 1.00228 16.1282 1.00114C16.0077 1.00057 15.9135 1.00029 15.8493 1.00014L15.7758 1.00002L15.7568 1L15.7518 1L15.7505 1L15.7502 1C15.7501 1 15.75 1 15.75 2C15.75 1 15.7499 1 15.7498 1L15.7495 1L15.7482 1L15.7432 1L15.7242 1.00002L15.6507 1.00014C15.5865 1.00029 15.4923 1.00057 15.3718 1.00114C15.1309 1.00228 14.7847 1.00455 14.3628 1.00909C13.5193 1.01817 12.371 1.03633 11.1537 1.07271C9.93807 1.10904 8.64561 1.16377 7.51624 1.24657C6.41601 1.32724 5.38619 1.43964 4.74327 1.61164C3.19792 2.01918 2.01595 3.23468 1.59774 4.76813L1.59768 4.76812L1.59488 4.77883C1.28467 5.96799 1.14172 7.72656 1.07158 9.11761C1.03577 9.82779 1.01791 10.4684 1.00898 10.9314C1.0045 11.1631 1.00226 11.3509 1.00114 11.4813C1.00057 11.5465 1.00029 11.5974 1.00015 11.6323L1.00002 11.6725L1 11.6832L1 11.6862L1 11.687L1 11.6873C1 11.6874 1 11.6875 2 11.6875C1 11.6875 1 11.6876 1 11.6877L1 11.688L1 11.6888L1 11.6918L1.00002 11.7025L1.00015 11.7428C1.0003 11.7777 1.00059 11.8287 1.00117 11.8939C1.00233 12.0244 1.00463 12.2123 1.00923 12.4441C1.01841 12.9073 1.03679 13.5483 1.07361 14.2588C1.14565 15.649 1.2925 17.4087 1.61164 18.6005C2.01684 20.1369 3.225 21.3396 4.74929 21.7608L4.75489 21.7623C5.39475 21.9351 6.4238 22.0477 7.52268 22.1284C8.64992 22.2112 9.94097 22.266 11.1556 22.3023C12.3719 22.3387 13.5198 22.3568 14.363 22.3659C14.7848 22.3704 15.1309 22.3727 15.3718 22.3739C15.4923 22.3744 15.5865 22.3747 15.6507 22.3749L15.7242 22.375L15.7432 22.375L15.7482 22.375H15.7495H15.7498C15.7499 22.375 15.75 22.375 15.75 21.375C15.75 22.375 15.7501 22.375 15.7502 22.375H15.7505H15.7518L15.7568 22.375L15.7758 22.375L15.8493 22.3749C15.9135 22.3747 16.0077 22.3744 16.1282 22.3739C16.3691 22.3727 16.7153 22.3704 17.1372 22.3659C17.9807 22.3568 19.129 22.3387 20.3463 22.3023C21.5619 22.266 22.8544 22.2112 23.9838 22.1284C25.0838 22.0478 26.1135 21.9354 26.7564 21.7634C28.3019 21.356 29.484 20.1404 29.9023 18.6069L29.9023 18.6069L29.9051 18.5962C30.2153 17.407 30.3583 15.6484 30.4284 14.2574C30.4642 13.5472 30.4821 12.9066 30.491 12.4436C30.4955 12.2119 30.4977 12.0241 30.4989 11.8937C30.4994 11.8285 30.4997 11.7776 30.4999 11.7427L30.5 11.7025L30.5 11.6918L30.5 11.6888V11.688V11.6877Z" stroke="#E02A47" stroke-width="2"/>
</svg>
